<svg xmlns="http://www.w3.org/2000/svg" viewBox="0 0 72 72" xmlns:xlink="http://www.w3.org/1999/xlink"><defs><path id="path-1" d="M36 55.3c3.7 2.3 8 3.7 12.7 3.7C61.7 59 72 48.7 72 36S61.6 13 48.7 13c-4.7 0-9 1.4-12.7 3.7-3.7-2.3-8-3.7-12.7-3.7C10.3 13 0 23.3 0 36s10.4 23 23.3 23c4.7 0 9-1.4 12.7-3.7z"/><mask id="mask-2" width="72" height="46" x="0" y="0" fill="#fff"><use xlink:href="#path-1"/></mask></defs><g id="Page-1" fill="none" fill-rule="evenodd"><g id="compare"><use id="Combined-Shape" stroke="#7691B4" stroke-width="12" mask="url(#mask-2)" xlink:href="#path-1"/><path id="Combined-Shape" fill="#22A8FA" d="M36 53.6C30.2 50 26.3 43.4 26.3 36c0-7.4 4-14 9.7-17.6 5.8 3.7 9.7 10.2 9.7 17.6 0 7.4-4 14-9.7 17.6z"/></g></g></svg>