<?xml version="1.0" encoding="UTF-8" standalone="no"?>
<svg width="72px" height="72px" viewBox="0 0 72 72" version="1.1" xmlns="http://www.w3.org/2000/svg" xmlns:xlink="http://www.w3.org/1999/xlink">
    <!-- Generator: Sketch 42 (36781) - http://www.bohemiancoding.com/sketch -->
    <title>compare</title>
    <desc>Created with Sketch.</desc>
    <defs>
        <path d="M36,55.2804176 C39.654121,57.6328761 44.0183056,59 48.7058824,59 C61.5708683,59 72,48.7025492 72,36 C72,23.2974508 61.5708683,13 48.7058824,13 C44.0183056,13 39.654121,14.3671239 36,16.7195824 C32.345879,14.3671239 27.9816944,13 23.2941176,13 C10.4291317,13 3.55271368e-15,23.2974508 3.55271368e-15,36 C3.55271368e-15,48.7025492 10.4291317,59 23.2941176,59 C27.9816944,59 32.345879,57.6328761 36,55.2804176 Z" id="path-1"></path>
        <mask id="mask-2" maskContentUnits="userSpaceOnUse" maskUnits="objectBoundingBox" x="0" y="0" width="72" height="46" fill="white">
            <use xlink:href="#path-1"></use>
        </mask>
    </defs>
    <g id="Page-1" stroke="none" stroke-width="1" fill="none" fill-rule="evenodd">
        <g id="compare">
            <use id="Combined-Shape" stroke="#7691B4" mask="url(#mask-2)" stroke-width="12" xlink:href="#path-1"></use>
            <path d="M36,53.5709288 C30.1892903,49.8828643 26.3328003,43.3917979 26.3328003,36 C26.3328003,28.6082021 30.1892903,22.1171357 36,18.4290712 C41.8107097,22.1171357 45.6671997,28.6082021 45.6671997,36 C45.6671997,43.3917979 41.8107097,49.8828643 36,53.5709288 Z" id="Combined-Shape" fill="#22A8FA"></path>
        </g>
    </g>
</svg>