<?xml version="1.0" encoding="UTF-8" standalone="no"?>
<svg width="72px" height="72px" viewBox="0 0 72 72" version="1.1" xmlns="http://www.w3.org/2000/svg" xmlns:xlink="http://www.w3.org/1999/xlink">
    <!-- Generator: Sketch 42 (36781) - http://www.bohemiancoding.com/sketch -->
    <title>compare</title>
    <desc>Created with Sketch.</desc>
    <defs>
        <path d="M36,17.7195824 C32.345879,15.3671239 27.9816944,14 23.2941176,14 C10.4291317,14 0,24.2974508 0,37 C0,49.7025492 10.4291317,60 23.2941176,60 C27.9816944,60 32.345879,58.6328761 36,56.2804176 C39.654121,58.6328761 44.0183056,60 48.7058824,60 C61.5708683,60 72,49.7025492 72,37 C72,24.2974508 61.5708683,14 48.7058824,14 C44.0183056,14 39.654121,15.3671239 36,17.7195824 Z" id="path-1"></path>
        <mask id="mask-2" maskContentUnits="userSpaceOnUse" maskUnits="objectBoundingBox" x="0" y="0" width="72" height="46" fill="white">
            <use xlink:href="#path-1"></use>
        </mask>
    </defs>
    <g id="Page-1" stroke="none" stroke-width="1" fill="none" fill-rule="evenodd">
        <g id="compare">
            <use id="Combined-Shape" stroke="#7691B4" mask="url(#mask-2)" stroke-width="12" xlink:href="#path-1"></use>
            <path d="M35.9790669,54.9809527 C30.1683572,51.2928881 26.3118672,44.8018218 26.3118672,37.4100239 C26.3118672,30.018226 30.1683572,23.5271596 35.9790669,19.8390951 C41.7897765,23.5271596 45.6462665,30.018226 45.6462665,37.4100239 C45.6462665,44.8018218 41.7897765,51.2928881 35.9790669,54.9809527 Z" id="Combined-Shape" fill="#22A8FA"></path>
        </g>
    </g>
</svg>