<?xml version="1.0" encoding="UTF-8" standalone="no"?>
<svg width="72px" height="72px" viewBox="0 0 72 72" version="1.1" xmlns="http://www.w3.org/2000/svg" xmlns:xlink="http://www.w3.org/1999/xlink">
    <!-- Generator: Sketch 42 (36781) - http://www.bohemiancoding.com/sketch -->
    <title>edit</title>
    <desc>Created with Sketch.</desc>
    <defs></defs>
    <g id="Page-1" stroke="none" stroke-width="1" fill="none" fill-rule="evenodd">
        <g id="edit">
            <path d="M42.3965404,12.4881489 C43.4727789,13.5643875 44.2607275,14.5637369 44.7604097,15.4862271 C45.2600919,16.4087172 45.5868022,17.1774475 45.7405506,17.792441 C45.9711732,18.5611828 46.0480462,19.2530401 45.971172,19.8680336 L31.4420241,34.3971814 L14.721973,51.0019219 L1,54 L3.88276744,40.1627163 L20.6028186,23.5579759 L35.1319664,9.028828 C35.7469599,8.95195382 36.4388172,9.02882685 37.207559,9.25944939 C37.8225525,9.41319776 38.5720645,9.72068988 39.4561176,10.181935 C40.3401707,10.6431801 41.3203018,11.4119104 42.3965404,12.4881489 Z M15.2985265,48.0038437 C15.2216523,47.5425986 15.0679062,47.0044874 14.8372837,46.389494 C14.4529128,45.3132554 13.6073095,44.0448504 12.3004483,42.584241 C11.6085807,41.8923733 10.9359417,41.3350438 10.2825111,40.9122358 C9.62908059,40.4894278 9.03331461,40.201154 8.49519533,40.0474056 C7.88020187,39.8167831 7.34209067,39.7014735 6.88084557,39.7014735 L5.6124279,41.0852019 L4.57463162,45.6976298 C4.95900253,45.9282523 5.3818042,46.1973079 5.84304929,46.5048047 C6.30429439,46.8123014 6.76553257,47.1966665 7.22677766,47.6579116 C8.14926785,48.5804018 8.84112512,49.5028782 9.30237022,50.4253684 L13.9147981,49.3875721 L15.2985265,48.0038437 Z" id="✎" fill="#22A8FA" transform="translate(23.500000, 31.500000) scale(-1, 1) translate(-23.500000, -31.500000) "></path>
            <path d="M12,34.0276745 L15.2064705,37.234145 L16.7500001,38.7670296 L16.7500001,64.2857141 L64.2499965,64.2857141 L64.2499965,26.5714298 L48.8124957,26.5714298 C47.8229092,26.5714298 46.9817756,26.2276853 46.2890618,25.5401798 C45.5963479,24.8526743 45.2499993,24.017865 45.2499993,23.0357108 L45.2499993,7.71428925 L16.7500001,7.71428925 L16.7500001,10.8366114 L12.0227544,6.10936565 C12.1100935,5.30971434 12.4488607,4.61701593 13.0390625,4.03125 C13.7317738,3.3437445 14.5729115,3 15.5624997,3 L48.8124957,3 C49.8020905,3 50.8906206,3.2455365 52.0781277,3.7366095 C53.2656265,4.2276825 54.2057287,4.8169635 54.8984342,5.50446075 L66.4765578,16.9955393 C67.1692717,17.6830365 67.7630169,18.616062 68.2578101,19.7946405 C68.7526034,20.973219 69,22.0535647 69,23.0357107 L69,65.464286 C69,66.4464336 68.6536514,67.281247 67.9609375,67.96875 C67.2682237,68.6562534 66.4270901,69 65.4374953,69 L15.5624997,69 C14.5729115,69 13.7317738,68.6562534 13.0390625,67.96875 C12.3463507,67.281247 12,66.4464336 12,65.464286 L12,34.0276745 Z M50.0000028,8.00892975 L50.0000028,21.8571405 L63.9531239,21.8571405 C63.7057273,21.145083 63.4335927,20.6417423 63.1367201,20.3471018 L51.5214812,8.81919525 C51.2246086,8.52455475 50.7174546,8.25446625 50.0000028,8.00892975 Z" id="Combined-Shape" fill="#7792B4"></path>
        </g>
    </g>
</svg>