<svg width="72" height="72" viewBox="0 0 72 72" xmlns="http://www.w3.org/2000/svg"><title>edit</title><desc>Created with Sketch.</desc><g fill="none"><path d="M3.603 12.488c-1.076 1.076-1.864 2.076-2.364 2.998-.5.922-.826 1.691-.98 2.306-.231.769-.307 1.461-.231 2.076l14.529 14.529 16.72 16.605 13.722 2.998-2.883-13.837-16.72-16.605-14.529-14.529c-.615-.077-1.307 0-2.076.231-.615.154-1.365.461-2.249.922-.884.461-1.864 1.23-2.94 2.306zm27.098 35.516c.077-.461.231-.999.461-1.614.384-1.076 1.23-2.345 2.537-3.805.692-.692 1.365-1.249 2.018-1.672.653-.423 1.249-.711 1.787-.865.615-.231 1.153-.346 1.614-.346l1.268 1.384 1.038 4.612c-.384.231-.807.5-1.268.807-.461.307-.922.692-1.384 1.153-.922.922-1.614 1.845-2.076 2.767l-4.612-1.038-1.384-1.384z" fill="#22A8FA"/><path d="M14 37.028l.206.206 7.637 7.585v15.577h38.312v-32.529h-13.315c-.854 0-1.579-.296-2.177-.889-.597-.593-.896-1.313-.896-2.16v-13.215h-21.924v5.328l-7.844-7.844v-2.551c0-.982.346-1.817 1.039-2.504.693-.688 1.534-1.031 2.523-1.031h30.25c.99 0 2.078.246 3.266.737 1.187.491 2.128 1.08 2.82 1.768l11.578 11.491c.693.687 1.286 1.621 1.781 2.799.495 1.179.742 2.259.742 3.241v42.429c0 .982-.346 1.817-1.039 2.504-.693.688-1.534 1.031-2.523 1.031h-46.875c-.99 0-1.831-.344-2.523-1.031-.693-.688-1.039-1.522-1.039-2.504v-28.437zm36.003-27.023v11.857h11.947c-.212-.61-.445-1.041-.699-1.293l-9.945-9.87c-.254-.252-.688-.484-1.303-.694z" fill="#7792B4"/></g></svg>