<svg width="72" height="72" viewBox="0 0 72 72" xmlns="http://www.w3.org/2000/svg"><g fill-rule="nonzero"><path d="M6 44h6.559l1.153 3.46-5.126 5.126c-.781.781-.781 2.047 0 2.828l8 8c.78.781 2.048.781 2.828 0l5.126-5.126 3.46 1.153v6.559c0 1.104.896 2 2 2h12c1.104 0 2-.896 2-2v-6.559l3.46-1.153 5.126 5.126c.78.781 2.048.781 2.828 0l8-8c.781-.781.781-2.047 0-2.828l-5.126-5.126 1.153-3.46h6.559c1.104 0 2-.896 2-2v-12c0-1.104-.896-2-2-2h-6.559l-1.153-3.46 5.126-5.126c.781-.781.781-2.047 0-2.828l-8-8c-.78-.781-2.048-.781-2.828 0l-5.126 5.126-3.46-1.153v-6.559c0-1.104-.896-2-2-2h-12c-1.104 0-2 .896-2 2v6.559l-3.46 1.153-5.126-5.126c-.78-.781-2.048-.781-2.828 0l-8 8c-.781.781-.781 2.047 0 2.828l5.126 5.126-1.153 3.46h-6.559c-1.104 0-2 .896-2 2v12c0 1.104.896 2 2 2zm3-11.571h7.357c.769 0 1.451-.492 1.694-1.221l1.786-5.357c.213-.642.046-1.349-.431-1.827l-5.094-5.095 4.617-4.617 5.095 5.094c.478.479 1.186.645 1.827.431l5.357-1.786c.729-.243 1.221-.925 1.221-1.694v-7.357h7.143v7.357c0 .769.492 1.451 1.221 1.694l5.357 1.786c.643.214 1.349.047 1.827-.431l5.095-5.094 4.617 4.617-5.094 5.095c-.479.479-.646 1.186-.431 1.827l1.786 5.357c.243.729.925 1.221 1.694 1.221h7.357v7.143h-7.357c-.769 0-1.451.492-1.694 1.221l-1.786 5.357c-.213.642-.046 1.349.431 1.827l5.094 5.095-4.617 4.617-5.095-5.094c-.479-.479-1.186-.646-1.827-.431l-5.357 1.786c-.729.243-1.221.925-1.221 1.694v7.357h-7.143v-7.357c0-.769-.492-1.451-1.221-1.694l-5.357-1.786c-.64-.213-1.349-.046-1.827.431l-5.095 5.094-4.617-4.617 5.094-5.095c.479-.479.646-1.186.431-1.827l-1.786-5.357c-.243-.729-.925-1.221-1.694-1.221h-7.357v-7.143zM36 46c5.514 0 10-4.486 10-10s-4.486-10-10-10-10 4.486-10 10 4.486 10 10 10zm0-15c2.758 0 5 2.242 5 5s-2.242 5-5 5-5-2.242-5-5 2.242-5 5-5z"/></g></svg>
