<svg width="72" height="72" viewBox="0 0 72 72" xmlns="http://www.w3.org/2000/svg"><path d="M36 1c9.688 0 17.943 3.516 24.766 10.547 6.823 7.031 10.234 15.495 10.234 25.391 0 7.813-2.24 14.844-6.719 21.094-4.479 6.25-10.208 10.573-17.188 12.969h-.625c-1.25 0-1.875-.625-1.875-1.875 0-.104.026-1.276.078-3.516.052-2.24.078-4.297.078-6.172 0-3.021-.833-5.26-2.5-6.719 4.792-.625 8.672-2.161 11.641-4.609 2.969-2.448 4.453-6.797 4.453-13.047 0-3.75-1.198-6.979-3.594-9.688 1.042-3.021.938-6.198-.313-9.531h-.781c-2.396 0-5.365 1.25-8.906 3.75-3.021-.833-5.937-1.25-8.75-1.25-2.813 0-5.729.417-8.75 1.25-3.542-2.5-6.51-3.75-8.906-3.75h-.781c-1.25 3.333-1.354 6.51-.313 9.531-2.396 2.708-3.594 5.937-3.594 9.688 0 6.25 1.458 10.599 4.375 13.047 2.917 2.448 6.771 3.984 11.563 4.609-1.146 1.146-1.875 2.76-2.188 4.844-1.25.625-2.604.938-4.063.938-2.604 0-4.635-1.302-6.094-3.906-1.354-2.292-3.177-3.542-5.469-3.75-2.188 0-2.24.729-.156 2.188 1.563.833 2.865 2.604 3.906 5.313.104.417.313.911.625 1.484.313.573 1.172 1.328 2.578 2.266s3.099 1.406 5.078 1.406c1.458 0 2.604-.104 3.438-.313v6.094c0 1.146-.573 1.719-1.719 1.719h-.625c-7.083-2.396-12.839-6.693-17.266-12.891-4.427-6.198-6.641-13.255-6.641-21.172 0-9.896 3.411-18.359 10.234-25.391 6.823-7.031 15.078-10.547 24.766-10.547z"/></svg>
