<svg width="72" height="72" viewBox="0 0 72 72" xmlns="http://www.w3.org/2000/svg"><path d="M35.715 33.687c-.928 0-1.712-.32-2.397-.979-.675-.647-1.002-1.404-1.002-2.316v-22.059c0-.911.328-1.669 1.001-2.315.687-.66 1.471-.981 2.398-.981.919 0 1.681.316 2.329.965.649.648.965 1.409.965 2.33v22.059c0 .92-.316 1.681-.964 2.33-.649.649-1.41.964-2.33.964m0 33.352c-7.63 0-14.202-2.703-19.534-8.034-5.332-5.332-8.036-11.905-8.036-19.534 0-7.561 2.704-14.098 8.036-19.43.649-.649 1.428-.964 2.383-.964.954 0 1.734.316 2.383.965.648.648.964 1.41.964 2.33 0 .919-.316 1.681-.964 2.33-4.053 4.053-6.108 9.021-6.108 14.768 0 5.676 2.073 10.627 6.161 14.715 4.088 4.088 9.039 6.161 14.716 6.161 5.607 0 10.522-2.073 14.61-6.161 4.087-4.088 6.16-9.039 6.16-14.715 0-5.747-2.055-10.716-6.108-14.768-.648-.649-.963-1.412-.963-2.33 0-.92.315-1.682.964-2.331.649-.648 1.428-.964 2.383-.964.954 0 1.734.315 2.383.964 5.401 5.402 8.141 11.94 8.141 19.43 0 7.559-2.739 14.131-8.141 19.534-5.332 5.331-11.869 8.034-19.429 8.034"/></svg>
