<?xml version="1.0" encoding="UTF-8" standalone="no"?>
<svg width="72px" height="72px" viewBox="0 0 72 72" version="1.1" xmlns="http://www.w3.org/2000/svg" xmlns:xlink="http://www.w3.org/1999/xlink">
    <!-- Generator: Sketch 42 (36781) - http://www.bohemiancoding.com/sketch -->
    <title>revision</title>
    <desc>Created with Sketch.</desc>
    <defs></defs>
    <g id="Page-1" stroke="none" stroke-width="1" fill="none" fill-rule="evenodd">
        <g id="revision">
            <g id="Group" transform="translate(0.419355, 0.000000)">
                <path d="M31.1909677,71.517283 C22.5860962,71.517283 15.2395924,68.4731526 9.15123816,62.3847984 C3.0628839,56.2964441 0.018753529,48.9499403 0.018753529,40.3450688 C0.018753529,31.7401972 3.0628839,24.3936857 9.15123816,18.305347 C15.2395924,12.2169927 22.5860962,9.17285456 31.1909677,9.17285456 L31.1909677,2.4474435 C31.1909677,0.243806597 32.4196569,-0.242006691 33.9323341,1.35918663 L43.5231526,11.5112233 C44.2838067,12.3163881 44.2936705,13.6202535 43.5358014,14.4335572 L33.9159093,24.7570987 C32.4109656,26.3721218 31.1909677,25.8913013 31.1909677,23.6803467 L31.1909677,17.0582335 C23.8849489,17.0582335 17.6361278,20.6688202 14.5754196,23.7295284 C11.5147114,26.7902366 7.90413251,32.037295 7.90413251,40.3450688 C7.90413251,48.6528425 10.9208013,53.3059986 14.5754196,56.9606169 C18.2300379,60.6152352 22.8831974,63.631904 31.1909677,63.631904 C39.4987381,63.631904 44.5092453,60.2578797 47.8065081,56.9606169 C51.1037709,53.6633541 54.477803,47.6510877 54.477803,40.3450688 L62.363182,40.3450688 C62.363182,48.9499403 59.3190438,56.2964441 53.2306895,62.3847984 C47.1423509,68.4731526 39.7958393,71.517283 31.1909677,71.517283 Z" id="Page-1" fill="#7691B4"></path>
                <path d="M68.4418527,8.73249916 C69.4711207,9.76176715 70.2246806,10.7175017 70.702555,11.5997314 C71.1804294,12.4819611 71.4928811,13.2171415 71.6399194,13.8052946 C71.8604768,14.540486 71.9339948,15.2021484 71.8604757,15.7903015 L57.9654272,29.68535 L41.9750937,45.5654054 L28.8519924,48.4326376 L31.6089465,35.1992581 L47.59928,19.3192027 L61.4943284,5.42415429 C62.0824816,5.35063515 62.7441439,5.42415319 63.4793354,5.64471062 C64.0674885,5.7917489 64.7842894,6.08582106 65.6297595,6.52693591 C66.4752297,6.96805077 67.4125847,7.70323116 68.4418527,8.73249916 Z M42.5264845,42.6981731 C42.4529654,42.2570583 42.3059293,41.742432 42.0853719,41.1542789 C41.7177762,40.1250109 40.9090777,38.9119632 39.6592523,37.5150995 C38.99758,36.8534272 38.3542972,36.3204214 37.7293845,35.9160662 C37.1044718,35.5117109 36.534707,35.2360182 36.020073,35.0889799 C35.4319198,34.8684225 34.9172935,34.7581455 34.4761787,34.7581455 L33.2631189,36.0814834 L32.2706154,40.4926099 C32.6382112,40.7131673 33.0425604,40.9704805 33.4836752,41.264557 C33.9247901,41.5586336 34.3658983,41.9262238 34.8070132,42.3673386 C35.6892429,43.2495684 36.3509052,44.1317848 36.7920201,45.0140145 L41.2031466,44.0215111 L42.5264845,42.6981731 Z" id="✎" fill="#22A8FA"></path>
            </g>
        </g>
    </g>
</svg>