<svg width="72" height="72" viewBox="0 0 72 72" xmlns="http://www.w3.org/2000/svg"><title>revision</title><desc>Created with Sketch.</desc><g fill="none"><path d="M31.61 71.517c-8.605 0-15.951-3.044-22.04-9.132-6.088-6.088-9.132-13.435-9.132-22.04 0-8.605 3.044-15.951 9.132-22.04 6.088-6.088 13.435-9.132 22.04-9.132v-6.725c0-2.204 1.229-2.689 2.741-1.088l9.591 10.152c.761.805.771 2.109.013 2.922l-9.62 10.324c-1.505 1.615-2.725 1.134-2.725-1.077v-6.622c-7.306 0-13.555 3.611-16.616 6.671-3.061 3.061-6.671 8.308-6.671 16.616s3.017 12.961 6.671 16.616c3.655 3.655 8.308 6.671 16.616 6.671s13.318-3.374 16.616-6.671c3.297-3.297 6.671-9.31 6.671-16.616h7.885c0 8.605-3.044 15.951-9.132 22.04-6.088 6.088-13.435 9.132-22.04 9.132z" fill="#7691B4"/><path d="M68.861 8.732c1.029 1.029 1.783 1.985 2.261 2.867.478.882.79 1.617.937 2.206.221.735.294 1.397.221 1.985l-13.895 13.895-15.99 15.88-13.123 2.867 2.757-13.233 15.99-15.88 13.895-13.895c.588-.074 1.25 0 1.985.221.588.147 1.305.441 2.15.882s1.783 1.176 2.812 2.206zm-25.915 33.966c-.074-.441-.221-.956-.441-1.544-.368-1.029-1.176-2.242-2.426-3.639-.662-.662-1.305-1.195-1.93-1.599-.625-.404-1.195-.68-1.709-.827-.588-.221-1.103-.331-1.544-.331l-1.213 1.323-.993 4.411c.368.221.772.478 1.213.772.441.294.882.662 1.323 1.103.882.882 1.544 1.764 1.985 2.647l4.411-.993 1.323-1.323z" fill="#22A8FA"/></g></svg>