<?xml version="1.0" encoding="UTF-8" standalone="no"?>
<svg width="72px" height="72px" viewBox="0 0 72 72" version="1.1" xmlns="http://www.w3.org/2000/svg" xmlns:xlink="http://www.w3.org/1999/xlink">
    <!-- Generator: Sketch 42 (36781) - http://www.bohemiancoding.com/sketch -->
    <title>revision</title>
    <desc>Created with Sketch.</desc>
    <defs></defs>
    <g id="Page-1" stroke="none" stroke-width="1" fill="none" fill-rule="evenodd">
        <g id="revision">
            <g id="Group" transform="translate(-0.580645, 0.000000)">
                <path d="M32.1909677,71.517283 C23.5860962,71.517283 16.2395924,68.4731526 10.1512382,62.3847984 C4.0628839,56.2964441 1.01875353,48.9499403 1.01875353,40.3450688 C1.01875353,31.7401972 4.0628839,24.3936857 10.1512382,18.305347 C16.2395924,12.2169927 23.5860962,9.17285456 32.1909677,9.17285456 L32.1909677,2.4474435 C32.1909677,0.243806597 33.4196569,-0.242006691 34.9323341,1.35918663 L44.5231526,11.5112233 C45.2838067,12.3163881 45.2936705,13.6202535 44.5358014,14.4335572 L34.9159093,24.7570987 C33.4109656,26.3721218 32.1909677,25.8995444 32.1909677,23.6873217 L32.1909677,15.0582335 C24.8849489,15.0582335 19.6896344,17.6153059 14.5754196,22.7295284 C9.46120327,27.8437354 6.90413251,33.0390499 6.90413251,40.3450688 C6.90413251,47.6510877 9.46120327,52.8464021 14.5754196,57.9606169 C19.6896344,63.0748332 24.8849489,65.631904 32.1909677,65.631904 C39.4969866,65.631904 44.6923011,63.0748332 49.8065081,57.9606169 C54.9207307,52.8464021 57.477803,47.6510877 57.477803,40.3450688 L63.363182,40.3450688 C63.363182,48.9499403 60.3190438,56.2964441 54.2306895,62.3847984 C48.1423509,68.4731526 40.7958393,71.517283 32.1909677,71.517283 Z" id="Page-1" fill="#7691B4"></path>
                <path d="M69.4418527,8.73249916 C70.4711207,9.76176715 71.2246806,10.7175017 71.702555,11.5997314 C72.1804294,12.4819611 72.4928811,13.2171415 72.6399194,13.8052946 C72.8604768,14.540486 72.9339948,15.2021484 72.8604757,15.7903015 L58.9654272,29.68535 L42.9750937,45.5654054 L29.8519924,48.4326376 L32.6089465,35.1992581 L48.59928,19.3192027 L62.4943284,5.42415429 C63.0824816,5.35063515 63.7441439,5.42415319 64.4793354,5.64471062 C65.0674885,5.7917489 65.7842894,6.08582106 66.6297595,6.52693591 C67.4752297,6.96805077 68.4125847,7.70323116 69.4418527,8.73249916 Z M43.5264845,42.6981731 C43.4529654,42.2570583 43.3059293,41.742432 43.0853719,41.1542789 C42.7177762,40.1250109 41.9090777,38.9119632 40.6592523,37.5150995 C39.99758,36.8534272 39.3542972,36.3204214 38.7293845,35.9160662 C38.1044718,35.5117109 37.534707,35.2360182 37.020073,35.0889799 C36.4319198,34.8684225 35.9172935,34.7581455 35.4761787,34.7581455 L34.2631189,36.0814834 L33.2706154,40.4926099 C33.6382112,40.7131673 34.0425604,40.9704805 34.4836752,41.264557 C34.9247901,41.5586336 35.3658983,41.9262238 35.8070132,42.3673386 C36.6892429,43.2495684 37.3509052,44.1317848 37.7920201,45.0140145 L42.2031466,44.0215111 L43.5264845,42.6981731 Z" id="✎" fill="#22A8FA"></path>
            </g>
        </g>
    </g>
</svg>